HIERARCHY
ROOT joint_Root
{
	OFFSET 0.0 0.0 0.0
	CHANNELS 6 Xposition Yposition Zposition Zrotation Xrotation Yrotation 
	JOINT Hips
	{
		OFFSET -17.1583 93.1646 452.98
		CHANNELS 6 Xposition Yposition Zposition Zrotation Xrotation Yrotation 
		JOINT Spine
		{
			OFFSET 15.7357 0.0 0.0
			CHANNELS 6 Xposition Yposition Zposition Zrotation Xrotation Yrotation 
			JOINT Chest
			{
				OFFSET 8.98455 -0.406207 0.0
				CHANNELS 6 Xposition Yposition Zposition Zrotation Xrotation Yrotation 
				JOINT Neck
				{
					OFFSET 16.3773 0.0 0.0
					CHANNELS 6 Xposition Yposition Zposition Zrotation Xrotation Yrotation 
					JOINT Head
					{
						OFFSET 6.45672 0.0 0.0
						CHANNELS 6 Xposition Yposition Zposition Zrotation Xrotation Yrotation 
						End Site
						{
							OFFSET 0.0 0.0 0.0
						}
					}
				}
				JOINT Shoulder_L
				{
					OFFSET 12.9942 -0.242716 4.98039
					CHANNELS 6 Xposition Yposition Zposition Zrotation Xrotation Yrotation 
					JOINT UpperArm_L
					{
						OFFSET 5.34809 0.0 0.0
						CHANNELS 6 Xposition Yposition Zposition Zrotation Xrotation Yrotation 
						JOINT LowerArm_L
						{
							OFFSET 24.3286 1.87007e-05 0.0
							CHANNELS 6 Xposition Yposition Zposition Zrotation Xrotation Yrotation 
							JOINT Hand_L
							{
								OFFSET 22.2916 0.0 0.0
								CHANNELS 6 Xposition Yposition Zposition Zrotation Xrotation Yrotation 
								End Site
								{
									OFFSET 0.0 0.0 0.0
								}
							}
						}
					}
				}
				JOINT Shoulder_R
				{
					OFFSET 12.9945 -0.242716 -4.98039
					CHANNELS 6 Xposition Yposition Zposition Zrotation Xrotation Yrotation 
					JOINT UpperArm_R
					{
						OFFSET -5.34813 0.0 0.0
						CHANNELS 6 Xposition Yposition Zposition Zrotation Xrotation Yrotation 
						JOINT LowerArm_R
						{
							OFFSET -24.3289 0.000322201 0.0
							CHANNELS 6 Xposition Yposition Zposition Zrotation Xrotation Yrotation 
							JOINT Hand_R
							{
								OFFSET -22.2915 -0.000108084 0.0
								CHANNELS 6 Xposition Yposition Zposition Zrotation Xrotation Yrotation 
								End Site
								{
									OFFSET 0.0 0.0 0.0
								}
							}
						}
					}
				}
			}
		}
		JOINT UpperLeg_L
		{
			OFFSET -2.19248 -6.46944 0.0
			CHANNELS 6 Xposition Yposition Zposition Zrotation Xrotation Yrotation 
			JOINT LowerLeg_L
			{
				OFFSET 39.0811 0.0 -1.23785e-05
				CHANNELS 6 Xposition Yposition Zposition Zrotation Xrotation Yrotation 
				JOINT Foot_L
				{
					OFFSET 40.9854 0.0 -1.26872e-05
					CHANNELS 6 Xposition Yposition Zposition Zrotation Xrotation Yrotation 
					JOINT Toes_L
					{
						OFFSET 11.7543 0.0 0.0
						CHANNELS 6 Xposition Yposition Zposition Zrotation Xrotation Yrotation 
						End Site
						{
							OFFSET 0.0 0.0 0.0
						}
					}
				}
			}
		}
		JOINT UpperLeg_R
		{
			OFFSET -2.19251 6.46944 0.0
			CHANNELS 6 Xposition Yposition Zposition Zrotation Xrotation Yrotation 
			JOINT LowerLeg_R
			{
				OFFSET -39.0811 -0.00228153 -0.0401928
				CHANNELS 6 Xposition Yposition Zposition Zrotation Xrotation Yrotation 
				JOINT Foot_R
				{
					OFFSET -40.9854 0.0 0.0
					CHANNELS 6 Xposition Yposition Zposition Zrotation Xrotation Yrotation 
					JOINT Toes_R
					{
						OFFSET -11.7543 0.0 0.0
						CHANNELS 6 Xposition Yposition Zposition Zrotation Xrotation Yrotation 
						End Site
						{
							OFFSET 0.0 0.0 0.0
						}
					}
				}
			}
		}
	}
}
MOTION
Frames:	4
Frame Time:	0.0333333
0.000000 0.000000 0.000000 0.000000 0.000000 -0.000000 -2.571400 93.486000 -4.378850 87.823200 1.855620 0.343835 15.735700 0.000005 -0.000001 100.131000 88.011400 -98.784400 8.984550 -0.406207 -0.000000 -3.856150 0.562651 2.712870 16.377300 -0.000001 -0.000001 -5.714300 -0.362551 1.494970 6.456720 -0.000001 -0.000000 0.553584 -0.056259 1.037680 12.994200 -0.242716 4.980390 -92.796100 9.730080 -73.882100 5.348090 -0.000007 -0.000001 -62.509100 29.041500 -12.748300 24.328600 0.000019 0.000005 7.416530 42.827300 -10.846600 22.291600 -0.000001 0.000005 -32.671800 5.458020 -4.967260 12.994500 -0.242716 -4.980390 88.519400 5.801710 -75.656900 -5.348130 -0.000001 -0.000004 -65.627200 32.122900 -10.486100 -24.328900 0.000322 -0.000009 1.592020 9.363770 -9.712460 -22.291500 -0.000108 -0.000004 -21.520700 5.020620 6.966000 -2.192480 -6.469440 -0.000000 -171.673000 -4.819910 -3.770960 39.081100 -0.000007 -0.000012 0.009456 -0.038775 13.706500 40.985400 -0.000006 -0.000013 -3.123160 14.783400 -66.756100 11.754300 -0.000000 0.000003 0.001177 0.144663 -10.710100 -2.192510 6.469440 -0.000001 179.606000 9.467740 177.464000 -39.081100 -0.002282 -0.040193 0.037989 -0.149852 13.021600 -40.985400 0.000008 0.000006 -4.273770 4.517490 -67.196800 -11.754300 -0.000006 -0.000006 -0.005696 0.235721 -7.004080
0.000000 0.000000 0.000000 0.000000 0.000000 -0.000000 -2.542300 93.458600 -3.639740 87.813900 1.884450 0.626010 15.735700 0.000005 -0.000001 99.997800 88.398300 -98.576400 8.984550 -0.406207 -0.000000 -4.614710 0.402183 2.860930 16.377300 -0.000001 -0.000001 -6.146950 -0.180016 1.594150 6.456720 -0.000001 -0.000000 0.158045 0.321115 0.917806 12.994200 -0.242716 4.980390 -92.344000 8.175230 -73.940700 5.348090 -0.000007 -0.000001 -59.171700 20.245700 -19.847800 24.328600 0.000019 0.000005 4.996510 49.551100 -6.554860 22.291600 -0.000001 0.000005 -41.012300 5.349290 -1.323620 12.994500 -0.242716 -4.980390 88.840300 4.418550 -75.276200 -5.348130 -0.000001 -0.000004 -61.444200 29.734500 -18.107500 -24.328900 0.000322 -0.000009 2.390480 16.246300 -8.490830 -22.291500 -0.000108 -0.000004 -31.827500 4.931690 8.765960 -2.192480 -6.469440 -0.000000 -171.488000 -6.680590 -2.915490 39.081100 -0.000007 -0.000012 -0.002140 0.008957 13.434600 40.985400 -0.000006 -0.000013 -2.894350 16.404900 -66.421800 11.754300 -0.000000 0.000003 0.000718 0.154518 -10.310200 -2.192510 6.469440 -0.000001 179.387000 10.638200 178.463000 -39.081100 -0.002282 -0.040193 0.031225 -0.125372 12.541800 -40.985400 0.000008 0.000006 -4.140110 5.495730 -66.862200 -11.754300 -0.000006 -0.000006 -0.006893 0.246408 -6.568120
0.000000 0.000000 0.000000 0.000000 0.000000 -0.000000 -2.442060 93.511100 -2.972370 87.849200 1.776040 0.431965 15.735700 0.000005 -0.000001 100.803000 89.015300 -99.278700 8.984550 -0.406207 -0.000000 -5.832270 0.187817 3.062630 16.377300 -0.000001 -0.000001 -5.927280 0.149751 1.335060 6.456720 -0.000001 -0.000000 0.003005 0.691715 0.804360 12.994200 -0.242716 4.980390 -91.940200 6.604980 -73.589300 5.348090 -0.000007 -0.000001 -54.877000 10.832200 -27.143000 24.328600 0.000019 0.000005 4.924700 49.283500 -6.486050 22.291600 -0.000001 0.000005 -35.693600 5.232610 1.899920 12.994500 -0.242716 -4.980390 89.168900 3.016210 -74.585600 -5.348130 -0.000001 -0.000004 -57.103700 22.732000 -26.154800 -24.328900 0.000322 -0.000009 2.377590 15.386100 -8.899760 -22.291500 -0.000108 -0.000004 -31.461900 4.863320 10.106100 -2.192480 -6.469440 -0.000000 -171.505000 -7.173540 -2.086520 39.081100 -0.000007 -0.000012 -0.007267 0.033337 12.296400 40.985400 -0.000006 -0.000013 -3.147980 16.614200 -65.926300 11.754300 -0.000000 0.000003 -0.000001 0.167638 -9.777520 -2.192510 6.469440 -0.000001 179.036000 11.388800 179.316000 -39.081100 -0.002282 -0.040193 0.016065 -0.063966 11.254400 -40.985400 0.000008 0.000006 -5.231440 6.406510 -65.787200 -11.754300 -0.000006 -0.000006 -0.007727 0.253454 -6.280500
0.000000 0.000000 0.000000 0.000000 0.000000 -0.000000 -2.309930 93.581700 -2.350320 87.957600 1.632880 0.152409 15.735700 0.000005 -0.000001 104.038000 89.602500 -102.475000 8.984550 -0.406207 -0.000000 -6.992690 -0.008755 3.132230 16.377300 -0.000001 -0.000001 -5.580560 0.405780 1.274510 6.456720 -0.000001 -0.000000 -0.024084 1.050310 0.862084 12.994200 -0.242716 4.980390 -91.575000 5.251540 -73.278600 5.348090 -0.000007 -0.000001 -48.252200 3.507900 -34.580600 24.328600 0.000019 0.000005 4.947950 39.416400 -7.770810 22.291600 -0.000001 0.000005 -22.027600 5.319700 -0.332428 12.994500 -0.242716 -4.980390 89.459200 1.914820 -74.224100 -5.348130 -0.000001 -0.000004 -53.028500 13.713100 -34.038700 -24.328900 0.000322 -0.000009 1.019580 6.200730 -9.375730 -22.291500 -0.000108 -0.000004 -21.330900 5.018850 7.053110 -2.192480 -6.469440 -0.000000 -171.485000 -7.216580 -1.354480 39.081100 -0.000007 -0.000012 -0.020571 0.106407 10.941500 40.985400 -0.000006 -0.000013 -5.064490 16.658800 -64.325400 11.754300 -0.000000 0.000003 -0.000337 0.173113 -9.555130 -2.192510 6.469440 -0.000001 178.623000 11.689900 -179.790000 -39.081100 -0.002282 -0.040193 0.006031 -0.015840 9.642790 -40.985400 0.000008 0.000006 -6.668880 6.864020 -64.547000 -11.754300 -0.000006 -0.000006 -0.008856 0.262549 -5.908980
